<svg width="284" height="40" viewBox="0 0 284 40" fill="none" xmlns="http://www.w3.org/2000/svg">
<g clip-path="url(#clip0_1_23)" filter="url(#filter0_d_1_23)">
<path d="M4.68317 31.3557V0.529953H11.0923V26.0561H26.4299V31.3557H4.68317Z" fill="#D27487"/>
<path d="M35.1988 24.8196V19.52H53.0117V24.8196H35.1988ZM38.9558 0.529953H48.459L56.8571 31.3557H50.3155L45.5418 12.8955L43.6853 5.16706L41.8289 12.8955L36.9669 31.3557H30.602L38.9558 0.529953Z" fill="#D27487"/>
<path d="M68.3086 31.3557V5.8295H58.9822V0.529953H84.044V5.8295H74.7176V31.3557H68.3086Z" fill="#D27487"/>
<path d="M97.0562 31.3557V5.8295H87.7299V0.529953H112.792V5.8295H103.466V31.3557H97.0562Z" fill="#D27487"/>
<path d="M118.025 31.3557V0.529953H140.655V5.8295H124.478V12.7631H135.174V18.0626H124.478V26.0561H140.832V31.3557H118.025Z" fill="#D27487"/>
<path d="M184.098 31.8856C181.328 31.8856 178.941 31.2232 176.937 29.8983C174.933 28.5734 173.387 26.7186 172.296 24.3337C171.206 21.9195 170.661 19.1225 170.661 15.9428C170.661 12.7042 171.22 9.89252 172.34 7.50769C173.46 5.1229 175.036 3.28278 177.07 1.98733C179.133 0.662443 181.549 0 184.318 0C186.499 0 188.503 0.426907 190.33 1.28072C192.157 2.13454 193.645 3.37111 194.794 4.99041C195.973 6.58027 196.636 8.50871 196.784 10.7757H189.756C189.578 9.127 189.019 7.80211 188.076 6.80108C187.133 5.80006 185.88 5.29955 184.318 5.29955C182.963 5.29955 181.755 5.71174 180.695 6.5361C179.633 7.36048 178.794 8.56761 178.175 10.1575C177.585 11.7473 177.29 13.6758 177.29 15.9428C177.29 18.2098 177.585 20.1383 178.175 21.7282C178.764 23.318 179.56 24.5252 180.562 25.3495C181.593 26.1738 182.772 26.5861 184.098 26.5861C185.188 26.5861 186.146 26.3653 186.971 25.9236C187.795 25.4525 188.458 24.7901 188.96 23.9363C189.49 23.0824 189.814 22.0667 189.932 20.889H196.916C196.709 23.1267 196.061 25.0698 194.971 26.7186C193.88 28.3673 192.422 29.648 190.595 30.5608C188.768 31.444 186.603 31.8856 184.098 31.8856Z" fill="#D27487"/>
<path d="M203.916 24.8196V19.52H221.729V24.8196H203.916ZM207.674 0.529953H217.177L225.575 31.3557H219.033L214.259 12.8955L212.404 5.16706L210.547 12.8955L205.684 31.3557H199.319L207.674 0.529953Z" fill="#D27487"/>
<path d="M229.836 31.3557V0.529953H252.776V5.8295H236.245V12.7631H247.294V18.0626H236.245V31.3557H229.836Z" fill="#D27487"/>
<path d="M257.052 31.3557V0.529953H279.683V5.8295H263.506V12.7631H274.203V18.0626H263.506V26.0561H279.861V31.3557H257.052Z" fill="#D27487"/>
</g>
<defs>
<filter id="filter0_d_1_23" x="0" y="0" width="284" height="40" filterUnits="userSpaceOnUse" color-interpolation-filters="sRGB">
<feFlood flood-opacity="0" result="BackgroundImageFix"/>
<feColorMatrix in="SourceAlpha" type="matrix" values="0 0 0 0 0 0 0 0 0 0 0 0 0 0 0 0 0 0 127 0" result="hardAlpha"/>
<feOffset dy="4"/>
<feGaussianBlur stdDeviation="2"/>
<feComposite in2="hardAlpha" operator="out"/>
<feColorMatrix type="matrix" values="0 0 0 0 0 0 0 0 0 0 0 0 0 0 0 0 0 0 0.25 0"/>
<feBlend mode="normal" in2="BackgroundImageFix" result="effect1_dropShadow_1_23"/>
<feBlend mode="normal" in="SourceGraphic" in2="effect1_dropShadow_1_23" result="shape"/>
</filter>
<clipPath id="clip0_1_23">
<rect width="276" height="32" fill="white" transform="translate(4)"/>
</clipPath>
</defs>
</svg>
